<svg width="12" height="11" viewBox="0 0 12 11" fill="none" xmlns="http://www.w3.org/2000/svg">
<path d="M0.560997 4.85528L0.560992 4.85527C-0.297392 3.12187 0.283381 1.32845 1.42632 0.560243C1.99471 0.178212 2.70651 0.0450971 3.4673 0.298082C4.23146 0.552189 5.05971 1.20124 5.83874 2.41253C5.90068 2.50882 6.0422 2.50351 6.09757 2.4046C6.78465 1.17733 7.57677 0.526508 8.33501 0.27539C9.09137 0.0248934 9.83396 0.165191 10.4426 0.559348C11.6662 1.35177 12.3381 3.16442 11.4292 4.85068C10.3852 6.7877 9.00768 8.24171 7.19491 9.7907C6.50314 10.3818 5.47153 10.3487 4.77996 9.74312C3.09859 8.27074 1.60241 6.95863 0.560997 4.85528Z" stroke="#5D5D5D" stroke-width="0.3"/>
</svg>
