<svg width="73" height="63" viewBox="0 0 73 63" fill="none" xmlns="http://www.w3.org/2000/svg">
<path d="M51.7359 3.25266C57.6484 2.31859 64.1555 2.30364 67 2.35362V52.0231C64.0639 51.9689 57.3946 51.9802 51.2627 52.9626C44.4528 54.0537 38.3752 56.4266 36.5003 57.2034C34.6255 56.4257 28.5473 54.0502 21.7366 52.9625C15.6049 51.9833 8.93571 51.9704 6 52.0237V2.35124C8.84302 2.29716 15.3508 2.30528 21.2627 3.25244C27.956 4.32479 33.9585 6.71769 35.516 7.37112C36.1479 7.63619 36.8521 7.63619 37.484 7.37112C39.0414 6.71774 45.0432 4.32511 51.7359 3.25266Z" fill="#5086D7" stroke="black" stroke-width="3"/>
<path d="M6.5 4H3C2.44772 4 2 4.44772 2 5V54.7768C2 55.345 2.46853 55.8009 3.03656 55.7882C5.76122 55.7274 13.3932 55.6712 20.3281 56.6818C27.8227 57.774 34.5032 60.2285 36.1256 60.8532C36.3682 60.9466 36.6318 60.9467 36.8744 60.8533C38.497 60.2294 45.1774 57.7774 52.6719 56.6818C59.6065 55.668 67.238 55.7261 69.963 55.7879C70.5312 55.8007 71 55.3447 71 54.7764V5C71 4.44772 70.5523 4 70 4H67" stroke="black" stroke-width="3"/>
<line x1="36.5" y1="8" x2="36.5" y2="57" stroke="black" stroke-width="3"/>
</svg>
